<svg width="36" height="36" viewBox="0 0 36 36" fill="none" xmlns="http://www.w3.org/2000/svg">
<path d="M31.4759 18.795C31.6407 16.0039 30.9348 13.2305 29.4557 10.8578C27.9765 8.48517 25.7972 6.63027 23.2187 5.54932C20.6402 4.46836 17.7896 4.21468 15.0607 4.82331C12.3318 5.43194 9.85917 6.87285 7.98433 8.94705C6.10948 11.0213 4.9249 13.6264 4.59418 16.4027C4.26346 19.179 4.80291 21.9896 6.13805 24.4461C7.47318 26.9027 9.53811 28.8842 12.0477 30.1168C14.5573 31.3494 17.3876 31.7725 20.1479 31.3275" stroke="#F9FAFB" stroke-width="3" stroke-linecap="round" stroke-linejoin="round"/>
<path d="M18 10.5V18L22.5 22.5M28.5 24L25.5 28.5H31.5L28.5 33" stroke="#F9FAFB" stroke-width="3" stroke-linecap="round" stroke-linejoin="round"/>
</svg>
